<mxfile host="app.diagrams.net" agent="Mozilla/5.0 (Macintosh; Intel Mac OS X 10_15_7) AppleWebKit/537.36 (KHTML, like Gecko) Chrome/134.0.0.0 Safari/537.36" version="26.1.1">
  <diagram name="Page-1" id="c4acf3e9-155e-7222-9cf6-157b1a14988f">
    <mxGraphModel dx="1245" dy="793" grid="1" gridSize="10" guides="1" tooltips="1" connect="1" arrows="1" fold="1" page="1" pageScale="1" pageWidth="850" pageHeight="1100" background="none" math="0" shadow="0">
      <root>
        <mxCell id="0" />
        <mxCell id="1" parent="0" />
        <mxCell id="Id3kEngo9ItKMpW-ki3Q-20" value="Fraction" style="swimlane;fontStyle=1;align=center;verticalAlign=top;childLayout=stackLayout;horizontal=1;startSize=26;horizontalStack=0;resizeParent=1;resizeParentMax=0;resizeLast=0;collapsible=1;marginBottom=0;whiteSpace=wrap;html=1;strokeWidth=2;fontSize=14;spacingTop=0;spacing=0;" vertex="1" parent="1">
          <mxGeometry x="50" y="50" width="240" height="250" as="geometry" />
        </mxCell>
        <mxCell id="Id3kEngo9ItKMpW-ki3Q-21" value="- numerator: int&lt;div&gt;- denominator: int&amp;nbsp;&lt;/div&gt;" style="text;strokeColor=none;fillColor=none;align=left;verticalAlign=top;spacingLeft=4;spacingRight=4;overflow=hidden;rotatable=0;points=[[0,0.5],[1,0.5]];portConstraint=eastwest;whiteSpace=wrap;html=1;strokeWidth=2;fontSize=14;spacingTop=0;spacing=0;" vertex="1" parent="Id3kEngo9ItKMpW-ki3Q-20">
          <mxGeometry y="26" width="240" height="44" as="geometry" />
        </mxCell>
        <mxCell id="Id3kEngo9ItKMpW-ki3Q-22" value="" style="line;strokeWidth=2;fillColor=none;align=left;verticalAlign=middle;spacingTop=0;spacingLeft=3;spacingRight=3;rotatable=0;labelPosition=right;points=[];portConstraint=eastwest;strokeColor=inherit;fontSize=14;spacing=0;" vertex="1" parent="Id3kEngo9ItKMpW-ki3Q-20">
          <mxGeometry y="70" width="240" height="8" as="geometry" />
        </mxCell>
        <mxCell id="Id3kEngo9ItKMpW-ki3Q-23" value="+ Fraction ()&lt;div&gt;+ Fraction (numerator, denominator)&lt;/div&gt;&lt;div&gt;+ shorten (): Fraction&lt;/div&gt;&lt;div&gt;+ sum(other: Fraction): Fraction&lt;/div&gt;&lt;div&gt;+ subtract(other: Fraction): Fraction&lt;/div&gt;&lt;div&gt;+ multiply(other: Fraction): Fraction&lt;/div&gt;&lt;div&gt;+ divide(other: Fraction): Fraction&lt;/div&gt;&lt;div&gt;+ toFractionString(): String&lt;/div&gt;&lt;div&gt;- GCD(a: int , b: int): int&amp;nbsp;&lt;/div&gt;" style="text;strokeColor=none;fillColor=none;align=left;verticalAlign=top;spacingLeft=4;spacingRight=4;overflow=hidden;rotatable=0;points=[[0,0.5],[1,0.5]];portConstraint=eastwest;whiteSpace=wrap;html=1;strokeWidth=2;fontSize=14;spacingTop=0;spacing=0;" vertex="1" parent="Id3kEngo9ItKMpW-ki3Q-20">
          <mxGeometry y="78" width="240" height="172" as="geometry" />
        </mxCell>
      </root>
    </mxGraphModel>
  </diagram>
</mxfile>
